<?xml version="1.0" standalone="no"?>
<svg xmlns:xlink="http://www.w3.org/1999/xlink" id="wave" style="transform:rotate(0deg); transition: 0.3s" viewBox="0 0 1440 190" version="1.1" xmlns="http://www.w3.org/2000/svg"><defs><linearGradient id="sw-gradient-0" x1="0" x2="0" y1="1" y2="0"><stop stop-color="rgba(255, 249, 234, 1)" offset="0%"/><stop stop-color="rgba(255, 249, 234, 1)" offset="100%"/></linearGradient></defs><path style="transform:translate(0, 0px); opacity:1" fill="url(#sw-gradient-0)" d="M0,76L80,72.8C160,70,320,63,480,76C640,89,800,120,960,110.8C1120,101,1280,51,1440,50.7C1600,51,1760,101,1920,117.2C2080,133,2240,114,2400,114C2560,114,2720,133,2880,117.2C3040,101,3200,51,3360,34.8C3520,19,3680,38,3840,53.8C4000,70,4160,82,4320,88.7C4480,95,4640,95,4800,107.7C4960,120,5120,146,5280,139.3C5440,133,5600,95,5760,91.8C5920,89,6080,120,6240,139.3C6400,158,6560,165,6720,161.5C6880,158,7040,146,7200,129.8C7360,114,7520,95,7680,98.2C7840,101,8000,127,8160,126.7C8320,127,8480,101,8640,82.3C8800,63,8960,51,9120,60.2C9280,70,9440,101,9600,117.2C9760,133,9920,133,10080,133C10240,133,10400,133,10560,117.2C10720,101,10880,70,11040,57C11200,44,11360,51,11440,53.8L11520,57L11520,190L11440,190C11360,190,11200,190,11040,190C10880,190,10720,190,10560,190C10400,190,10240,190,10080,190C9920,190,9760,190,9600,190C9440,190,9280,190,9120,190C8960,190,8800,190,8640,190C8480,190,8320,190,8160,190C8000,190,7840,190,7680,190C7520,190,7360,190,7200,190C7040,190,6880,190,6720,190C6560,190,6400,190,6240,190C6080,190,5920,190,5760,190C5600,190,5440,190,5280,190C5120,190,4960,190,4800,190C4640,190,4480,190,4320,190C4160,190,4000,190,3840,190C3680,190,3520,190,3360,190C3200,190,3040,190,2880,190C2720,190,2560,190,2400,190C2240,190,2080,190,1920,190C1760,190,1600,190,1440,190C1280,190,1120,190,960,190C800,190,640,190,480,190C320,190,160,190,80,190L0,190Z"/></svg>